PathFileType	4	(X/Y/Z)	OpenSim_Sub07_EMGBaseline_Magnet.trc
DataRate	CameraRate	NumFrames	NumMarkers	Units	OrigDataRate	OrigDataStartFrame	OrigNumFrames
100	100	23	8	m	100	3415	6828
Frame#	Time	torso_imu_offset_imu	pelvis_imu_offset_imu	tibia_r_imu_offset_imu	femur_r_imu_offset_imu	tibia_l_imu_offset_imu	femur_l_imu_offset_imu	toes_r_imu_offset_imu	toes_l_imu_offset_imu
				X1	Y1	Z1	X2	Y2	Z2	X3	Y3	Z3	X4	Y4	Z4	X5	Y5	Z5	X6	Y6	Z6	X7	Y7	Z7	X8		Y8	Z8	

3415	34.14000000	0.93505900	0.17236300	0.03833000	-0.71289100	0.17822300	-0.59545900	-0.59155300	-0.52685500	0.14990200	-0.81713900	-0.25830100	0.01123000	-0.14331100	0.82031200	0.03613300	-0.72998000	0.21997100	0.34497100	-0.67456100	-0.25830100	-0.33740200	-0.75537100	-0.11499000	0.36450200
3416	34.15000000	0.92675800	0.17016600	0.03393600	-0.71508800	0.18042000	-0.59545900	-0.59130900	-0.53320300	0.14550800	-0.82128900	-0.26440400	0.01147500	-0.12329100	0.82031200	0.00219700	-0.74316400	0.21557600	0.33618200	-0.67236300	-0.26855500	-0.32885700	-0.73559600	-0.10839800	0.39819300
3417	34.16000000	0.93530300	0.16601600	0.03198200	-0.71289100	0.18457000	-0.60034200	-0.58496100	-0.53515600	0.14794900	-0.82299800	-0.27490200	0.01879900	-0.10595700	0.83374000	-0.02539100	-0.75146500	0.19799800	0.32739300	-0.67431600	-0.27050800	-0.32690400	-0.71630900	-0.07959000	0.42285200
3418	34.17000000	0.93310500	0.16601600	0.03418000	-0.71264600	0.17407200	-0.59985400	-0.58056600	-0.54150400	0.14819300	-0.81640600	-0.28320300	0.02587900	-0.09448200	0.82739300	-0.05883800	-0.76220700	0.19140600	0.31396500	-0.67431600	-0.26855500	-0.32885700	-0.69897500	-0.06420900	0.45434600
3419	34.18000000	0.92895500	0.16821300	0.03393600	-0.71069300	0.17627000	-0.59545900	-0.58276400	-0.54345700	0.14599600	-0.80786100	-0.28710900	0.02172900	-0.08569300	0.82739300	-0.08349600	-0.77075200	0.18261700	0.30517600	-0.67431600	-0.27246100	-0.33081100	-0.67553700	-0.03564500	0.49243200
3420	34.19000000	0.93530300	0.16381800	0.04077100	-0.71484400	0.17407200	-0.59521500	-0.57617200	-0.55395500	0.14868200	-0.80346700	-0.29760700	0.02880900	-0.08764600	0.81860400	-0.10766600	-0.77246100	0.17163100	0.29858400	-0.67211900	-0.27661100	-0.33081100	-0.68115200	-0.00488300	0.47216800
3421	34.20000000	0.93359400	0.15551800	0.04541000	-0.71240200	0.16992200	-0.59985400	-0.57177700	-0.55615200	0.15087900	-0.80957000	-0.30590800	0.02221700	-0.07666000	0.82324200	-0.13037100	-0.77880900	0.16308600	0.28295900	-0.67627000	-0.27465800	-0.32251000	-0.69775400	0.01709000	0.44506800
3422	34.21000000	0.92919900	0.15747100	0.04541000	-0.71020500	0.16772500	-0.59741200	-0.56958000	-0.56030300	0.15551800	-0.80737300	-0.31201200	0.03173800	-0.07910200	0.82104500	-0.14819300	-0.78515600	0.14990200	0.27636700	-0.68042000	-0.27880900	-0.32055700	-0.71191400	0.03491200	0.41577100
3423	34.22000000	0.93139600	0.15747100	0.04760700	-0.71679700	0.16992200	-0.59741200	-0.56127900	-0.56030300	0.15332000	-0.79858400	-0.32031200	0.02734400	-0.08105500	0.81445300	-0.16333000	-0.78930700	0.14331100	0.27197300	-0.68042000	-0.27270500	-0.31640600	-0.73706100	0.04809600	0.38647500
3424	34.23000000	0.93554700	0.15771500	0.04541000	-0.71679700	0.16552700	-0.59741200	-0.56298800	-0.56640600	0.16015600	-0.79003900	-0.32836900	0.02539100	-0.08081100	0.80786100	-0.17651400	-0.79101600	0.13037100	0.26977500	-0.67407200	-0.27880900	-0.32031200	-0.74389600	0.05688500	0.35717800
3425	34.24000000	0.93554700	0.15771500	0.04760700	-0.71630900	0.15502900	-0.59228500	-0.56323200	-0.56225600	0.16015600	-0.79394500	-0.33667000	0.02124000	-0.08960000	0.79931600	-0.18725600	-0.80175800	0.12133800	0.26538100	-0.67822300	-0.28076200	-0.31616200	-0.75122100	0.06811500	0.33471700
3426	34.25000000	0.93554700	0.15771500	0.04541000	-0.72290000	0.15722700	-0.59228500	-0.55859400	-0.57495100	0.15820300	-0.78735400	-0.34716800	0.02612300	-0.10327100	0.80151400	-0.20043900	-0.80151400	0.11279300	0.24975600	-0.68017600	-0.28295900	-0.31420900	-0.76049800	0.07690400	0.30322300
3427	34.26000000	0.92919900	0.15966800	0.04760700	-0.71826200	0.14672900	-0.60131800	-0.55639600	-0.57690400	0.15380900	-0.78100600	-0.34912100	0.02172900	-0.11645500	0.79711900	-0.20239300	-0.80761700	0.10180700	0.25000000	-0.67822300	-0.28295900	-0.31201200	-0.76489300	0.07495100	0.28051800
3428	34.27000000	0.93335000	0.15747100	0.05200200	-0.72021500	0.14453100	-0.59887700	-0.55639600	-0.57690400	0.16064500	-0.78271500	-0.35937500	0.02221700	-0.13647500	0.78833000	-0.21069300	-0.80932600	0.08886700	0.24560500	-0.67602500	-0.28295900	-0.30786100	-0.78271500	0.07275400	0.24682600
3429	34.28000000	0.92944300	0.15112300	0.05004900	-0.72021500	0.14038100	-0.59863300	-0.54785200	-0.58325200	0.15625000	-0.78076200	-0.35742200	0.01977500	-0.15649400	0.79028300	-0.20605500	-0.80688500	0.07788100	0.25463900	-0.67187500	-0.28271500	-0.30566400	-0.78710900	0.06860400	0.21997100
3430	34.29000000	0.93359400	0.15551800	0.05200200	-0.72216800	0.13403300	-0.60546900	-0.55395500	-0.58520500	0.15869100	-0.77832000	-0.36767600	0.01098600	-0.18090800	0.78369100	-0.20092800	-0.81079100	0.06274400	0.25488300	-0.67187500	-0.28271500	-0.30786100	-0.79321300	0.05542000	0.18847700
3431	34.30000000	0.93359400	0.15551800	0.05200200	-0.72436500	0.13818400	-0.60327100	-0.54785200	-0.58520500	0.15625000	-0.77392600	-0.37597700	0.01367200	-0.20117200	0.78344700	-0.17822300	-0.80835000	0.05835000	0.24804700	-0.67187500	-0.28686500	-0.30371100	-0.80639600	0.04663100	0.15918000
3432	34.31000000	0.92919900	0.15332000	0.05664100	-0.71997100	0.13623000	-0.60546900	-0.54760700	-0.58935500	0.15210000	-0.76733400	-0.38427700	0.00708000	-0.22558600	0.78344700	-0.16674800	-0.81469700	0.04516600	0.24609400	-0.66552700	-0.29101600	-0.29931600	-0.80786100	0.02710000	0.13012700
3433	34.32000000	0.93359400	0.15112300	0.05883800	-0.72851600	0.12988300	-0.60522500	-0.54321300	-0.59570300	0.15454100	-0.76709000	-0.39038100	0.00048800	-0.25878900	0.77221700	-0.13891600	-0.81225600	0.04101600	0.24829100	-0.66967800	-0.29101600	-0.29931600	-0.80761700	0.01855500	0.08520500
3434	34.33000000	0.93139600	0.15551800	0.06079100	-0.72607400	0.12573200	-0.60278300	-0.53686500	-0.60205100	0.15918000	-0.76074200	-0.39648400	0.00293000	-0.28320300	0.76782200	-0.09814500	-0.81396500	0.03002900	0.24609400	-0.66333000	-0.29492200	-0.29711900	-0.81591800	0.00317400	0.05590800
3435	34.34000000	0.92724600	0.15112300	0.06103500	-0.71752900	0.12793000	-0.60742200	-0.53491200	-0.59765600	0.15893600	-0.76245100	-0.40478500	-0.01049800	-0.31640600	0.76318400	-0.05957000	-0.81152300	0.02148400	0.25293000	-0.65698200	-0.29687500	-0.29711900	-0.81543000	-0.00976600	0.02002000
3436	34.35000000	0.93554700	0.15747100	0.05639600	-0.72192400	0.12988300	-0.60766600	-0.53466800	-0.59985400	0.15918000	-0.75634800	-0.40478500	-0.01269500	-0.34960900	0.74755900	-0.02710000	-0.81127900	0.01269500	0.24633800	-0.65502900	-0.29492200	-0.29931600	-0.81250000	-0.02490200	-0.00683600
3437	34.36000000	0.93139600	0.15747100	0.05859400	-0.71948200	0.11938500	-0.60034200	-0.53051800	-0.60400400	0.16381800	-0.74975600	-0.41308600	-0.01464800	-0.37573200	0.72753900	-0.00341800	-0.80688500	0.01269500	0.25537100	-0.65283200	-0.29272500	-0.29931600	-0.80981400	-0.04248000	-0.03369100
